<?xml version="1.0" encoding="UTF-8"?>
<svg xmlns="http://www.w3.org/2000/svg" width="448" height="192" viewBox="0 0 448 192" shape-rendering="auto">
  <defs>
    <clipPath id="tableTopClip">
      <polygon points="40,36 408,36 432,128 16,128"/>
    </clipPath>
    <clipPath id="tableFrontClip">
      <rect x="16" y="128" width="416" height="20"/>
    </clipPath>

    <filter id="softGlow" x="-50%" y="-50%" width="200%" height="200%">
      <feGaussianBlur stdDeviation="9"/>
    </filter>
    <filter id="bigGlow" x="-50%" y="-50%" width="200%" height="200%">
      <feGaussianBlur stdDeviation="14"/>
    </filter>
    <filter id="lineBlur" x="-20%" y="-20%" width="140%" height="140%">
      <feGaussianBlur stdDeviation="0.7"/>
    </filter>
  </defs>

  <!-- ============ AMBIENT CYAN AURA (subdued — back side) ============ -->
  <ellipse cx="232" cy="30" rx="110" ry="28" fill="#4dffea" opacity="0.14" filter="url(#bigGlow)"/>
  <ellipse cx="60" cy="62" rx="36" ry="28" fill="#a8fff5" opacity="0.25" filter="url(#softGlow)"/>

  <!-- ============ TABLE LEGS ============ -->
  <g>
    <rect x="18" y="148" width="20" height="34" rx="2" fill="#1a1410"/>
    <rect x="20" y="150" width="14" height="30" fill="#3a2818"/>
    <rect x="30" y="150" width="4" height="30" fill="#1a0e08"/>
    <rect x="21" y="152" width="3" height="2" fill="#5c3e22"/>

    <rect x="410" y="148" width="20" height="34" rx="2" fill="#1a1410"/>
    <rect x="412" y="150" width="14" height="30" fill="#3a2818"/>
    <rect x="422" y="150" width="4" height="30" fill="#1a0e08"/>
    <rect x="413" y="152" width="3" height="2" fill="#5c3e22"/>
  </g>

  <!-- Stretcher bar -->
  <rect x="38" y="166" width="372" height="5" rx="1" fill="#1a1410"/>
  <rect x="38" y="167" width="372" height="2" fill="#3a2818"/>
  <rect x="38" y="167" width="372" height="1" fill="#5c3e22"/>

  <!-- ============ FRONT FACE (back plank — plain) ============ -->
  <g clip-path="url(#tableFrontClip)">
    <rect x="16" y="128" width="416" height="20" fill="#3a2818"/>
    <rect x="16" y="128" width="416" height="3" fill="#5c3e22"/>
    <rect x="16" y="128" width="416" height="1" fill="#8a5a30"/>
    <rect x="16" y="136" width="416" height="1" fill="#26180a" opacity="0.7"/>
    <rect x="16" y="142" width="416" height="1" fill="#26180a" opacity="0.6"/>
    <rect x="16" y="145" width="416" height="3" fill="#1a0e08" opacity="0.6"/>
    <!-- Single seam joint at center -->
    <rect x="222" y="128" width="3" height="20" fill="#1a0e08" opacity="0.8"/>
    <!-- Wood knots -->
    <ellipse cx="110" cy="139" rx="4" ry="2" fill="#1a0e08"/>
    <ellipse cx="110" cy="139" rx="2.4" ry="1.2" fill="#26180a"/>
    <ellipse cx="320" cy="138" rx="3" ry="1.6" fill="#1a0e08"/>
    <ellipse cx="320" cy="138" rx="1.8" ry="0.9" fill="#26180a"/>
    <!-- Iron corner brackets -->
    <rect x="16" y="128" width="22" height="3" fill="#1a1410"/>
    <rect x="16" y="128" width="22" height="1.5" fill="#404048"/>
    <rect x="410" y="128" width="22" height="3" fill="#1a1410"/>
    <rect x="410" y="128" width="22" height="1.5" fill="#404048"/>
  </g>
  <rect x="16" y="128" width="416" height="20" fill="none" stroke="#1a1410" stroke-width="2"/>

  <!-- ============ TABLE TOP (dominant) ============ -->
  <polygon points="40,36 408,36 432,128 16,128" fill="none" stroke="#1a1410" stroke-width="2.5"/>
  <g clip-path="url(#tableTopClip)">
    <polygon points="40,36 408,36 432,128 16,128" fill="#5c3e22"/>
    <polygon points="40,36 408,36 406,40 42,40" fill="#8a5a30"/>
    <polygon points="42,36 406,36 404,38 44,38" fill="#b88a50"/>
    <polygon points="16,128 432,128 422,122 26,122" fill="#3a2818"/>
    <polygon points="16,128 432,128 426,126 22,126" fill="#26180a"/>
    <line x1="40" y1="62" x2="430" y2="62" stroke="#3a2818" stroke-width="1" opacity="0.55"/>
    <line x1="32" y1="84" x2="434" y2="84" stroke="#3a2818" stroke-width="1" opacity="0.5"/>
    <line x1="24" y1="106" x2="432" y2="106" stroke="#3a2818" stroke-width="1" opacity="0.45"/>
    <rect x="100" y="74" width="2" height="1" fill="#8a5a30" opacity="0.7"/>
    <rect x="180" y="100" width="2" height="1" fill="#8a5a30" opacity="0.7"/>
    <rect x="280" y="72" width="2" height="1" fill="#8a5a30" opacity="0.7"/>
    <rect x="360" y="118" width="2" height="1" fill="#8a5a30" opacity="0.65"/>
    <rect x="220" y="120" width="2" height="1" fill="#8a5a30" opacity="0.65"/>
    <ellipse cx="200" cy="86" rx="3" ry="1.8" fill="#3a2818" opacity="0.8"/>
    <ellipse cx="200" cy="86" rx="1.6" ry="0.9" fill="#26180a"/>
  </g>

  <!-- ============ LEFT (mirror of south's right): CRYSTAL ORB + INKWELL ============ -->
  <g>
    <!-- Crystal orb -->
    <ellipse cx="50" cy="116" rx="20" ry="4" fill="#1a0e08" opacity="0.55"/>
    <rect x="32" y="106" width="36" height="10" rx="2" fill="#1a1410"/>
    <rect x="34" y="107" width="32" height="6" fill="#3a2818"/>
    <rect x="36" y="107" width="28" height="1" fill="#5c3e22"/>
    <rect x="38" y="108" width="4" height="1" fill="#8a5a30"/>
    <rect x="35" y="100" width="3" height="6" fill="#1a1410"/>
    <rect x="62" y="100" width="3" height="6" fill="#1a1410"/>
    <rect x="48" y="98" width="3" height="6" fill="#1a1410"/>
    <circle cx="50" cy="82" r="26" fill="#4dffea" opacity="0.35" filter="url(#softGlow)"/>
    <circle cx="50" cy="82" r="16" fill="#a8fff5" opacity="0.35" filter="url(#softGlow)"/>
    <circle cx="50" cy="82" r="16" fill="#1a3a3a"/>
    <circle cx="50" cy="82" r="14" fill="#2a6a6a"/>
    <circle cx="50" cy="82" r="11" fill="#4dffea"/>
    <circle cx="50" cy="82" r="6" fill="#a8fff5"/>
    <ellipse cx="56" cy="76" rx="4" ry="3" fill="#ffffff"/>
    <rect x="56" y="74" width="2" height="2" fill="#ffffff"/>
    <path d="M 46,90 Q 50,86 54,91" fill="none" stroke="#1a3a3a" stroke-width="0.8" opacity="0.6"/>
    <circle cx="50" cy="82" r="16" fill="none" stroke="#1a1410" stroke-width="1.5"/>

    <!-- Inkwell (no quill from this side) -->
    <ellipse cx="100" cy="112" rx="14" ry="4" fill="#1a0e08" opacity="0.55"/>
    <rect x="90" y="94" width="20" height="18" rx="1" fill="#1a1410"/>
    <rect x="92" y="96" width="16" height="15" fill="#26262e"/>
    <rect x="93" y="96" width="2" height="13" fill="#3a3a48"/>
    <rect x="106" y="96" width="2" height="13" fill="#15151a"/>
    <ellipse cx="100" cy="94" rx="10" ry="3" fill="#1a1410"/>
    <ellipse cx="100" cy="94" rx="8" ry="2.2" fill="#0a0a18"/>
    <ellipse cx="102" cy="93" rx="3" ry="0.8" fill="#1a2a5a"/>
    <!-- Hint of quill on far side -->
    <path d="M 96,96 L 92,90 L 94,88 L 98,94 Z" fill="#d6cea0" opacity="0.65"/>
  </g>

  <!-- ============ CENTER: CLOSED BOOK ============ -->
  <g>
    <ellipse cx="232" cy="115" rx="80" ry="5" fill="#1a0e08" opacity="0.55"/>
    <rect x="164" y="82" width="136" height="32" rx="1" fill="#1a0e08"/>
    <rect x="166" y="84" width="132" height="28" fill="#1a2a5a"/>
    <rect x="166" y="84" width="132" height="3" fill="#283a7a"/>
    <rect x="166" y="85" width="132" height="1" fill="#4a5aa0"/>
    <rect x="166" y="109" width="132" height="3" fill="#0a1a3a"/>
    <!-- Page edges (near side, south) -->
    <rect x="166" y="109" width="132" height="2" fill="#d6cea0"/>
    <rect x="166" y="109" width="132" height="1" fill="#f0e8c8"/>
    <!-- Back cover stamp -->
    <rect x="226" y="98" width="12" height="1" fill="#c89030"/>
    <rect x="224" y="94" width="2" height="9" fill="#c89030"/>
    <rect x="238" y="94" width="2" height="9" fill="#c89030"/>
  </g>

  <!-- ============ FLOATING SYMBOL (subdued — visible from behind too) ============ -->
  <ellipse cx="232" cy="26" rx="42" ry="22" fill="#4dffea" opacity="0.45" filter="url(#softGlow)"/>
  <ellipse cx="232" cy="26" rx="22" ry="14" fill="#a8fff5" opacity="0.40" filter="url(#softGlow)"/>
  <ellipse cx="232" cy="56" rx="22" ry="12" fill="#4dffea" opacity="0.20" filter="url(#softGlow)"/>

  <g filter="url(#lineBlur)">
    <circle cx="232" cy="26" r="16" fill="none" stroke="#a8fff5" stroke-width="1.5"/>
    <circle cx="232" cy="26" r="10" fill="none" stroke="#4dffea" stroke-width="1.3"/>
    <circle cx="232" cy="26" r="2.2" fill="#ffffff"/>
    <rect x="231" y="7" width="2" height="5" fill="#a8fff5"/>
    <rect x="231" y="40" width="2" height="5" fill="#a8fff5"/>
    <rect x="213" y="25" width="5" height="2" fill="#a8fff5"/>
    <rect x="246" y="25" width="5" height="2" fill="#a8fff5"/>
  </g>

  <g>
    <rect x="206" y="48" width="1" height="1" fill="#a8fff5" opacity="0.8"/>
    <rect x="254" y="44" width="1" height="1" fill="#a8fff5" opacity="0.8"/>
    <rect x="216" y="14" width="1" height="1" fill="#ffffff" opacity="0.8"/>
    <rect x="248" y="12" width="1" height="1" fill="#ffffff" opacity="0.8"/>
  </g>

  <!-- ============ RIGHT (mirror of south's left): STACK OF BOOKS (back covers) ============ -->
  <g>
    <ellipse cx="368" cy="114" rx="48" ry="5" fill="#1a0e08" opacity="0.55"/>

    <rect x="322" y="84" width="90" height="24" rx="1" fill="#1a0e08"/>
    <rect x="324" y="86" width="86" height="20" fill="#5a1a14"/>
    <rect x="324" y="94" width="86" height="2" fill="#8a2820"/>
    <rect x="324" y="87" width="86" height="1" fill="#8a2820"/>
    <rect x="324" y="105" width="86" height="1" fill="#3a0e08"/>
    <rect x="322" y="89" width="4" height="16" fill="#d6cea0"/>
    <rect x="322" y="90" width="4" height="1" fill="#f0e8c8"/>
    <rect x="354" y="94" width="22" height="1" fill="#3a0e08" opacity="0.6"/>

    <rect x="328" y="64" width="86" height="22" rx="1" fill="#1a0e08"/>
    <rect x="330" y="66" width="82" height="18" fill="#1a2a5a"/>
    <rect x="330" y="73" width="82" height="2" fill="#283a7a"/>
    <rect x="330" y="67" width="82" height="1" fill="#283a7a"/>
    <rect x="330" y="82" width="82" height="1" fill="#0a1a3a"/>
    <rect x="328" y="69" width="4" height="13" fill="#d6cea0"/>
    <rect x="328" y="70" width="4" height="1" fill="#f0e8c8"/>

    <rect x="334" y="46" width="76" height="20" rx="1" fill="#1a0e08"/>
    <rect x="336" y="48" width="72" height="16" fill="#1a3a1e"/>
    <rect x="336" y="54" width="72" height="2" fill="#284a30"/>
    <rect x="336" y="49" width="72" height="1" fill="#284a30"/>
    <rect x="336" y="62" width="72" height="1" fill="#0a1a0c"/>
    <rect x="336" y="51" width="4" height="11" fill="#d6cea0"/>
    <rect x="336" y="52" width="4" height="1" fill="#f0e8c8"/>
  </g>

  <!-- ============ ROLLED SCROLL ============ -->
  <g>
    <ellipse cx="282" cy="118" rx="14" ry="3" fill="#1a0e08" opacity="0.4"/>
    <rect x="300" y="113" width="22" height="6" rx="1" fill="#d6cea0"/>
    <rect x="300" y="113" width="22" height="2" fill="#f0e8c8"/>
    <rect x="300" y="118" width="22" height="1" fill="#b8aa78"/>
    <ellipse cx="300" cy="116" rx="1.5" ry="3" fill="#b8aa78"/>
    <ellipse cx="322" cy="116" rx="1.5" ry="3" fill="#b8aa78"/>
    <ellipse cx="300" cy="116" rx="1" ry="2.5" fill="#8a7858"/>
    <ellipse cx="322" cy="116" rx="1" ry="2.5" fill="#8a7858"/>
    <circle cx="311" cy="116" r="2" fill="#8a2820"/>
    <circle cx="311" cy="116" r="1.2" fill="#b8403a"/>
  </g>

</svg>
